<?xml version="1.0" encoding="utf-8"?>
<!-- Generator: Adobe Illustrator 16.0.0, SVG Export Plug-In . SVG Version: 6.00 Build 0)  -->
<!DOCTYPE svg PUBLIC "-//W3C//DTD SVG 1.1//EN" "http://www.w3.org/Graphics/SVG/1.1/DTD/svg11.dtd">
<svg version="1.1" id="Layer_1" xmlns="http://www.w3.org/2000/svg" xmlns:xlink="http://www.w3.org/1999/xlink" x="0px" y="0px"
	 width="159.75px" height="104px" viewBox="0 0 159.75 104" enable-background="new 0 0 159.75 104" xml:space="preserve">
<g>
	<path fill-rule="evenodd" clip-rule="evenodd" fill="#B7C8E4" d="M77.224,1.435c7.333,0,14.424,0.696,21.131,1.996H56.096
		C62.803,2.131,69.894,1.435,77.224,1.435L77.224,1.435z M105.521,5.09c2.755,0.746,5.427,1.588,8.005,2.537H40.927
		c2.582-0.949,5.251-1.791,8.003-2.537H105.521L105.521,5.09z M117.727,9.28c1.872,0.794,3.684,1.646,5.44,2.536H31.282
		c1.757-0.891,3.569-1.742,5.438-2.536H117.727L117.727,9.28z M126.249,13.476c1.433,0.809,2.813,1.653,4.145,2.531H24.052
		c1.338-0.877,2.721-1.722,4.147-2.531H126.249L126.249,13.476z M132.806,17.666c1.145,0.822,2.241,1.665,3.299,2.531H18.341
		c1.063-0.866,2.163-1.708,3.301-2.531H132.806L132.806,17.666z M138.037,21.855c0.924,0.828,1.814,1.674,2.662,2.537H13.754
		c0.851-0.862,1.736-1.708,2.657-2.537H138.037L138.037,21.855z M142.259,26.051c0.751,0.823,1.464,1.673,2.146,2.53H10.047
		c0.682-0.857,1.396-1.708,2.143-2.53H142.259L142.259,26.051z M145.661,30.241c0.592,0.829,1.163,1.673,1.7,2.531H7.094
		c0.532-0.857,1.101-1.702,1.699-2.531H145.661L145.661,30.241z M148.342,34.431c0.469,0.837,0.904,1.679,1.316,2.537H4.796
		c0.408-0.857,0.845-1.7,1.314-2.537H148.342L148.342,34.431z M150.395,38.618c0.354,0.837,0.67,1.682,0.96,2.539H3.094
		c0.293-0.857,0.609-1.702,0.963-2.539H150.395L150.395,38.618z M151.872,42.816c0.239,0.837,0.442,1.68,0.622,2.531H1.961
		c0.175-0.851,0.382-1.693,0.621-2.531H151.872L151.872,42.816z M152.799,47.007c0.132,0.834,0.234,1.679,0.308,2.531H1.346
		c0.075-0.852,0.175-1.697,0.307-2.531H152.799L152.799,47.007z M153.207,51.193c0.015,0.423,0.022,0.846,0.022,1.266
		c0,0.429-0.008,0.852-0.022,1.274H1.242c-0.017-0.423-0.02-0.846-0.02-1.274c0-0.42,0.003-0.843,0.02-1.266H153.207L153.207,51.193
		z M153.104,55.384c-0.071,0.852-0.182,1.694-0.309,2.54H1.659c-0.135-0.846-0.239-1.688-0.311-2.54H153.104L153.104,55.384z
		 M152.488,59.579c-0.184,0.852-0.389,1.696-0.631,2.531H2.593c-0.238-0.835-0.454-1.68-0.629-2.531H152.488L152.488,59.579z
		 M151.34,63.77c-0.287,0.852-0.614,1.702-0.963,2.531H4.074c-0.351-0.829-0.673-1.68-0.96-2.531H151.34L151.34,63.77z
		 M149.641,67.96c-0.405,0.856-0.851,1.701-1.319,2.538H6.128c-0.472-0.837-0.915-1.682-1.314-2.538H149.641L149.641,67.96z
		 M147.337,72.148c-0.538,0.857-1.104,1.701-1.708,2.536H8.816c-0.601-0.835-1.17-1.679-1.705-2.536H147.337L147.337,72.148z
		 M144.381,76.345c-0.676,0.856-1.395,1.702-2.146,2.53H12.213c-0.745-0.828-1.466-1.674-2.145-2.53H144.381L144.381,76.345z
		 M140.669,80.534c-0.849,0.866-1.732,1.709-2.658,2.53H16.44c-0.929-0.821-1.815-1.664-2.66-2.53H140.669L140.669,80.534z
		 M136.073,84.725c-1.059,0.871-2.16,1.714-3.296,2.536H21.677c-1.139-0.822-2.243-1.665-3.301-2.536H136.073L136.073,84.725z
		 M130.364,88.921c-1.331,0.871-2.715,1.723-4.144,2.53H28.228c-1.423-0.808-2.807-1.659-4.147-2.53H130.364L130.364,88.921z
		 M123.142,93.11c-1.756,0.892-3.569,1.736-5.439,2.529H36.751c-1.875-0.793-3.69-1.638-5.438-2.529H123.142L123.142,93.11z
		 M113.499,97.301c-2.58,0.939-5.251,1.791-7.997,2.535H48.95c-2.749-0.744-5.424-1.596-8.003-2.535H113.499L113.499,97.301z
		 M98.326,101.49c-6.691,1.3-13.777,2.001-21.102,2.001c-7.327,0-14.401-0.701-21.105-2.001H98.326z"/>
	<path fill-rule="evenodd" clip-rule="evenodd" d="M158.187,18.065c0,2.053-0.718,3.796-2.167,5.251s-3.201,2.18-5.252,2.18
		c-2.047,0-3.798-0.725-5.25-2.18c-1.453-1.455-2.181-3.198-2.181-5.251c0-2.05,0.728-3.801,2.181-5.256
		c1.452-1.45,3.203-2.172,5.25-2.172c2.051,0,3.803,0.722,5.252,2.172C157.469,14.264,158.187,16.015,158.187,18.065L158.187,18.065
		z M157.362,18.065c0-1.82-0.642-3.378-1.931-4.667c-1.289-1.294-2.841-1.938-4.664-1.938c-1.832,0-3.385,0.645-4.671,1.938
		c-1.287,1.289-1.931,2.847-1.931,4.667c0,1.815,0.644,3.377,1.931,4.668c1.286,1.288,2.839,1.932,4.671,1.932
		c1.823,0,3.375-0.644,4.664-1.932C156.721,21.442,157.362,19.88,157.362,18.065L157.362,18.065z M147.349,13.729v0.336
		c0.349,0.037,0.587,0.135,0.72,0.296c0.135,0.155,0.201,0.462,0.201,0.929v4.779c0,0.521-0.066,0.857-0.201,1.012
		c-0.133,0.161-0.402,0.253-0.815,0.282v0.331h3.312v-0.331c-0.411-0.028-0.676-0.121-0.81-0.268
		c-0.128-0.155-0.191-0.506-0.191-1.069v-2.06h0.779l2.944,3.728h1.779v-0.331c-0.221-0.028-0.393-0.086-0.52-0.155
		c-0.174-0.126-0.4-0.351-0.673-0.696l-2.111-2.715c0.745-0.152,1.289-0.399,1.625-0.759c0.334-0.357,0.501-0.785,0.501-1.299
		c0-0.561-0.228-1.042-0.686-1.427c-0.46-0.385-1.141-0.583-2.055-0.583H147.349L147.349,13.729z M149.563,17.47
		c0.239,0.012,0.414,0.02,0.534,0.02c0.817,0,1.413-0.156,1.785-0.463c0.369-0.305,0.547-0.71,0.547-1.21
		c0-0.478-0.164-0.872-0.494-1.188c-0.331-0.316-0.785-0.472-1.363-0.472c-0.281,0-0.612,0.063-1.009,0.189V17.47z"/>
	
		<path fill-rule="evenodd" clip-rule="evenodd" fill="#FFFFFF" stroke="#FFFFFF" stroke-width="0.216" stroke-miterlimit="2.6131" d="
		M76.411,6.215c0.745,0.526,1.242,0.414,1.627,0.414c0.734,0,1.141-0.215,2.393,0.199c1.9,0.638,4.92-0.667,2.219,2.073
		c-1.652,1.68-0.189,1.308,0.587,1.801c0.82,0.511,0.263,1.86,0.263,1.86s1.461,0.661,2.508,1.337
		c0.404,0.253,1.048,1.052,2.183,1.216c1.779,0.244,4.649-0.417,4.948,0.94c0.281,1.251-3.014,0.613-4.302,1.099
		c-0.998,0.379-1.203,2.24-1.239,2.248l-1.174,0.225c-1.116-0.098-2.085,0.132-2.872,0.653l-1.557,3.557l-3.951,2.778l-1.033,2.395
		l-1.418,3.796c-0.624,1.693,2.24,4.759,2.24,4.759s1.893-0.725,2.959,0.463c1.239,1.386-0.002,2.18,2.801,5.061
		c1.021,1.047,3.296,4.021,4.469,4.472c0.656,0.244,2.635,2.395,4.072,2.312c1.469-0.098,2.691,0.94,2.691,0.94l0.966,2.441
		c0,0,0.059,0.829,1.238,1.72c1.172,0.896,1.754,0,2.095,1.141c0.341,1.146,0.032,2.101,1.409,2.841
		c1.37,0.729,0.099,1.931,0.806,3.274c0.708,1.344,0.835,1.411,0.835,3.649c0,2.235-0.171,4.673,0.623,4.717
		c0.791,0.04,1.495,1.489,0.728,2.199c-0.771,0.702-1.699,1.314-1.23,3.178c0.472,1.86,0.348,4.238-0.445,5.038
		c-0.458,0.466-0.667,0.408-1.312,1.78c-0.173,0.366-1.997,0.309-2.539,0.808c-1.076,0.99-3.817,2.172-3.817,2.172
		s-2.354,1.344-3.528,1.561c-1.176,0.225-0.652,0.965-3.122,1.344c-2.477,0.38-3.189-0.359-3.675,1.038
		c-0.484,1.4-0.263-0.596-1.206,2.313c-0.937,2.904,2.021,2.252-2.107,2.904c-1.683,0.268-0.793,1.688-0.374,1.659
		c0.483-0.029-5.542-0.029-6.652,2.74c-0.869,2.16-3.799,2.172-3.799,2.172h-1.291l1.012-3.142l-0.193-4.098
		c0.411-1.104,1.328-1.604,2.111-2.312l-1.82,0.454c-0.746,0.185,0.022-2.647-0.242-2.05c-0.258,0.595-1.397,1.659-1.492,1.354
		l-0.909-2.81c-0.386-1.201,4.65,0.308,4.288-2.692c-0.098-0.802,1.36-0.542,2.001-0.542c0.869,0.007,1.881-0.395,2.851-0.245
		c0.805,0.127,1.587,0.813,2.153,0.695c1.717-0.351,1.553-0.885,1.553-0.885l-2.264-2.033c-0.437-0.857-1.253-1.589-0.601-1.962
		l1.308-0.596c0,0,0.952,0.785,3.148-0.022c0.446-0.161-0.536-1.588,0.161-1.835c2.272-0.794,3.736-0.463,4.519-0.856
		c0.463-0.238,0.206-1.358,1.063-1.426c2.007-0.162,3.184,1.697,2.864-2.347c-0.049-0.584-0.871-0.93-0.935-1.796
		c-0.094-1.286,0.873-2.292,0.811-3.07c-0.252-3.401-1.266-2.721-1.281-3.627c-0.015-0.738-0.794-1.279-0.547-2.32
		c0.132-0.541,1.671-1.168,1.386-2.137c-1-3.358,0.84-3.275,0.437-4.254c-0.165-0.385-0.861-0.456-1.275-0.904
		c-3.136-3.423,0.203-3.992,0.203-3.992s-2.062-0.972-3.962-2.441c-0.814-0.625-2.111,0.227-2.126-1.608
		c-0.006-2.369-0.845-2.229-1.279-2.565c-0.674-0.529-1.24-0.739-2.95-2.131c-2.801-2.272-3.419-5.062-3.419-5.062
		c-2.971-0.325-3.528-2.51-4.579-4.322l-2.476-0.365c0,0-0.682-1.772-1.86-1.999c-1.173-0.224-2.678-0.478-2.678-0.478l0.765-3.002
		l3.517-0.132c0,0,4.144-2.067,2.027-3.183c-2.116-1.119-3.077-1.66-3.077-1.66s1.671-0.612,1.499-1.349
		c-0.193-0.831-2.263-1.786-2.893-1.907c-1.173-0.224-1.274-0.788-2.436,0.458c-1.145,1.245-4.622,0.437-4.622,0.437l-2.148-2.441
		l-0.081-4.187c-0.023-1.308-0.71,1.187-1.599,0.833c-0.696-0.273-0.777-1.53-0.923-1.811c-0.699-1.3-3.762-2.413-2.563-3.121
		c1.801-1.075,1.173,0.196,2.484-3.128c0,0,1.599,1.68,3.485,2.355c1.881,0.667,0.443-1.513,2.795-1.961
		c1.286-0.239,2.847,1.884,3.327,1.124c0.743-1.182,1.548-1.553,2.991-1.455c0.107,0,0.518-0.351,0.848-0.374
		c0.762-0.049,2.244-0.098,2.488-0.351c0.696-0.716-0.201-0.759,0.509-0.984c2.602-0.831,2.254-2.082,3.526-1.765
		C74.32,3.728,74.789,5.061,76.411,6.215z"/>
	<g>
		<path fill="#1C1B4B" d="M96.865,44.545c0-0.541-0.132-0.94-0.386-1.208c-0.255-0.276-0.591-0.408-1.014-0.408
			c-0.369,0-0.686,0.141-0.955,0.423c-0.263,0.273-0.395,0.672-0.395,1.193c0,0.59,0.408,1.426,1.214,2.502
			c0.494-0.365,0.859-0.73,1.093-1.082C96.713,45.514,96.865,45.045,96.865,44.545L96.865,44.545z M101.15,55.559l3.021,4.399
			h-3.952l-1.122-1.728c-0.587,0.711-1.196,1.237-1.818,1.59c-0.819,0.463-1.813,0.696-2.976,0.696c-1.537,0-2.787-0.563-3.76-1.683
			c-0.965-1.124-1.455-2.473-1.455-4.049c0-1.115,0.188-2.059,0.563-2.838c0.493-1.041,1.382-2.024,2.646-2.953l0.375-0.273
			c-0.411-0.575-0.757-1.173-1.021-1.786c-0.343-0.814-0.516-1.61-0.516-2.39c0-1.357,0.418-2.453,1.249-3.296
			c0.827-0.845,1.903-1.265,3.217-1.265c1.045,0,1.95,0.357,2.728,1.082c0.913,0.857,1.373,2.033,1.373,3.537
			c0,1.203-0.37,2.284-1.121,3.227c-0.445,0.575-1.006,1.076-1.676,1.504l2.372,3.506c0.221-0.405,0.409-0.886,0.563-1.418
			c0.154-0.543,0.265-1.162,0.328-1.863h2.885c-0.109,1.349-0.306,2.458-0.597,3.318C102.169,53.739,101.73,54.634,101.15,55.559
			L101.15,55.559z M97.421,55.786l-3.069-4.563c-0.779,0.647-1.282,1.153-1.516,1.504c-0.32,0.485-0.488,1.091-0.488,1.834
			c0,0.578,0.168,1.104,0.488,1.591c0.469,0.682,1.129,1.026,1.977,1.026c0.506,0,0.994-0.149,1.498-0.442
			C96.679,56.508,97.046,56.191,97.421,55.786z"/>
		<path fill="#1C1B4B" d="M54.238,60.517V24.639h14.5c4.92,0,8.526,1.996,10.804,5.996c1.677,2.931,2.509,6.629,2.509,11.092
			c0,4.837-0.909,8.912-2.733,12.246c-2.398,4.365-6.024,6.544-10.855,6.544H54.238L54.238,60.517z M60.988,30.831v23.491h6.652
			c2.585,0,4.521-1.265,5.794-3.802c1.062-2.096,1.6-4.857,1.6-8.296c0-4.624-0.886-7.842-2.652-9.642
			c-1.153-1.168-2.766-1.751-4.831-1.751H60.988z"/>
		<polygon fill="#1C1B4B" points="36.731,30.937 36.731,60.517 30.063,60.517 30.063,30.937 20.374,30.937 20.374,24.639 
			46.339,24.639 46.339,30.937 		"/>
		<polygon fill="#1C1B4B" points="125.091,30.937 125.091,60.517 118.43,60.517 118.43,30.937 108.738,30.937 108.738,24.639 
			134.695,24.639 134.695,30.937 		"/>
		<polygon fill="#1C1B4B" points="35.866,80.042 35.866,67.581 30.776,67.581 30.776,65.043 44.4,65.043 44.4,67.581 39.328,67.581 
			39.328,80.042 		"/>
		<path fill="#1C1B4B" d="M49.071,72.494l-2.982-0.471c0.337-1.057,0.915-1.83,1.734-2.336c0.816-0.506,2.039-0.76,3.654-0.76
			c1.464,0,2.551,0.155,3.273,0.458c0.719,0.302,1.219,0.689,1.513,1.152c0.293,0.473,0.44,1.33,0.44,2.58l-0.037,3.354
			c0,0.958,0.054,1.659,0.161,2.115c0.109,0.449,0.302,0.941,0.593,1.455h-3.259c-0.083-0.189-0.192-0.47-0.316-0.85
			c-0.052-0.17-0.089-0.282-0.115-0.338c-0.561,0.479-1.162,0.837-1.8,1.076c-0.639,0.239-1.323,0.357-2.045,0.357
			c-1.28,0-2.292-0.303-3.028-0.906c-0.736-0.605-1.107-1.378-1.107-2.307c0-0.61,0.169-1.159,0.506-1.645
			c0.337-0.478,0.809-0.843,1.409-1.102c0.604-0.253,1.478-0.479,2.614-0.671c1.536-0.253,2.605-0.49,3.195-0.706V72.67
			c0-0.564-0.155-0.949-0.463-1.188c-0.316-0.232-0.903-0.353-1.766-0.353c-0.593,0-1.047,0.1-1.375,0.305
			C49.54,71.635,49.281,71.988,49.071,72.494L49.071,72.494z M53.474,74.826c-0.422,0.121-1.087,0.267-1.996,0.442
			c-0.914,0.169-1.512,0.341-1.797,0.501c-0.426,0.269-0.641,0.598-0.641,1.012c0,0.4,0.175,0.746,0.515,1.038
			c0.342,0.298,0.782,0.443,1.312,0.443c0.589,0,1.153-0.166,1.697-0.506c0.396-0.264,0.655-0.581,0.782-0.955
			c0.091-0.244,0.129-0.716,0.129-1.405V74.826L53.474,74.826z M47.625,67.804l2.462-3.021h3.037l2.424,3.021h-2.646l-1.357-1.525
			l-1.266,1.525H47.625z"/>
		<path fill="#1C1B4B" d="M71.246,80.042h-3.284v-5.547c0-1.172-0.072-1.932-0.212-2.276c-0.141-0.343-0.371-0.61-0.685-0.8
			c-0.316-0.19-0.693-0.29-1.142-0.29c-0.57,0-1.078,0.135-1.533,0.408c-0.452,0.281-0.762,0.632-0.932,1.09
			c-0.165,0.451-0.25,1.278-0.25,2.496v4.919h-3.284V69.176h3.048v1.596c1.09-1.231,2.456-1.844,4.095-1.844
			c0.728,0,1.392,0.115,1.99,0.345c0.601,0.226,1.058,0.521,1.365,0.872c0.308,0.359,0.526,0.759,0.639,1.211
			c0.129,0.448,0.184,1.095,0.184,1.933V80.042z"/>
		<path fill="#1C1B4B" d="M110.888,69.176h3.286v2.059c0,0.843-0.076,1.505-0.253,1.98c-0.169,0.481-0.477,0.91-0.931,1.28
			c-0.693,0.584-1.769,0.986-3.219,1.188v4.358h-3.052v-1.624c-0.972,1.252-2.343,1.87-4.12,1.87c-1.828,0-3.054-0.61-3.681-1.826
			c-0.3-0.584-0.443-1.387-0.443-2.41v-6.876h3.284v4.998c0,1.436,0.066,2.36,0.189,2.797c0.08,0.331,0.304,0.604,0.65,0.823
			c0.325,0.204,0.728,0.308,1.22,0.308c0.558,0,1.059-0.14,1.501-0.399c0.451-0.268,0.756-0.598,0.921-1.006
			c0.163-0.401,0.247-1.384,0.247-2.937v-4.584h3.283v5.343c1.093-0.189,1.852-0.543,2.284-1.07c0.27-0.307,0.402-0.772,0.429-1.396
			h-1.597V69.176L110.888,69.176z M102.458,67.848l1.614-3.065h3.692l-3.224,3.065H102.458z"/>
		<path fill="#1C1B4B" d="M81.259,65.043h6.323c1.45,0,2.549,0.098,3.303,0.293c1.012,0.268,1.871,0.733,2.594,1.407
			c0.716,0.676,1.256,1.483,1.618,2.446c0.365,0.95,0.544,2.129,0.544,3.535c0,1.238-0.199,2.354-0.602,3.348
			c-0.399,0.992-0.992,1.819-1.774,2.473c-0.6,0.505-1.4,0.894-2.422,1.183c-0.764,0.218-1.785,0.314-3.081,0.314h-6.503v-6.55
			h-1.779v-1.897h1.779V65.043L81.259,65.043z M84.716,67.581v4.014h3.675v1.897h-3.675v4.026h2.594
			c1.147,0,1.969-0.084,2.481-0.244c0.67-0.205,1.182-0.584,1.539-1.125c0.479-0.773,0.732-1.955,0.732-3.538
			c0-1.123-0.1-1.995-0.31-2.607c-0.214-0.604-0.516-1.096-0.916-1.475c-0.402-0.371-0.919-0.64-1.572-0.789
			c-0.5-0.112-1.493-0.159-2.984-0.159H84.716z"/>
		<path fill="#1C1B4B" d="M126.732,72.395l-3.244,0.506c-0.106-0.563-0.355-0.99-0.738-1.277c-0.389-0.291-0.886-0.432-1.501-0.432
			c-0.828,0-1.474,0.248-1.968,0.748c-0.482,0.491-0.724,1.319-0.724,2.479c0,1.288,0.241,2.203,0.742,2.729
			c0.491,0.536,1.158,0.8,1.993,0.8c0.623,0,1.129-0.152,1.532-0.469c0.398-0.31,0.672-0.846,0.84-1.595l3.231,0.476
			c-0.336,1.295-0.981,2.278-1.933,2.94c-0.952,0.666-2.229,0.989-3.824,0.989c-1.82,0-3.273-0.498-4.349-1.495
			c-1.082-1.014-1.621-2.399-1.621-4.17c0-1.792,0.543-3.189,1.628-4.196c1.084-0.999,2.55-1.499,4.398-1.499
			c1.51,0,2.718,0.291,3.61,0.861C125.694,70.357,126.344,71.221,126.732,72.395z"/>
	</g>
</g>
</svg>
